<svg width="52" height="51" viewBox="0 0 52 51" fill="none" xmlns="http://www.w3.org/2000/svg">
<path d="M34.399 48.5565H3.93986C3.31528 48.5565 2.71629 48.3175 2.27465 47.8922C1.833 47.4669 1.58489 46.89 1.58489 46.2885V3.79425C1.58489 3.19276 1.833 2.6159 2.27465 2.19058C2.71629 1.76526 3.31528 1.52632 3.93986 1.52632H12.6061V3.79425C12.6074 4.79958 13.0226 5.76339 13.7608 6.47427C14.4989 7.18514 15.4997 7.58504 16.5436 7.58624H29.1474C30.1917 7.58564 31.1931 7.18601 31.9318 6.47507C32.6705 5.76413 33.086 4.79998 33.0873 3.79425V1.52632H41.7535C42.3781 1.52632 42.9771 1.76526 43.4188 2.19058C43.8604 2.6159 44.1085 3.19276 44.1085 3.79425V20.9875C44.1085 21.189 44.1916 21.3822 44.3396 21.5247C44.4875 21.6672 44.6882 21.7472 44.8974 21.7472C45.1067 21.7472 45.3073 21.6672 45.4553 21.5247C45.6032 21.3822 45.6863 21.189 45.6863 20.9875V3.79425C45.6851 2.7895 45.2706 1.82614 44.5335 1.11503C43.7964 0.403928 42.7968 0.00299856 41.7535 0L3.93986 0C2.89532 0.0012004 1.89393 0.401336 1.15533 1.11264C0.416738 1.82394 0.00124646 2.78832 0 3.79425L0 46.2795C0.00124646 47.2854 0.416738 48.2498 1.15533 48.9611C1.89393 49.6724 2.89532 50.0725 3.93986 50.0737H34.399C34.6005 50.0631 34.79 49.9786 34.9288 49.8375C35.0675 49.6963 35.1448 49.5094 35.1448 49.3151C35.1448 49.1208 35.0675 48.9339 34.9288 48.7927C34.79 48.6516 34.6005 48.5671 34.399 48.5565ZM14.1816 1.51725H31.5142V3.78518C31.5142 4.38668 31.266 4.96353 30.8244 5.38885C30.3828 5.81417 29.7838 6.05312 29.1592 6.05312H16.5436C15.9191 6.05312 15.3201 5.81417 14.8784 5.38885C14.4368 4.96353 14.1887 4.38668 14.1887 3.78518L14.1816 1.51725ZM30.4638 14.6713H25.2123C25.0108 14.6607 24.8212 14.5761 24.6825 14.435C24.5437 14.2939 24.4664 14.107 24.4664 13.9126C24.4664 13.7183 24.5437 13.5314 24.6825 13.3903C24.8212 13.2492 25.0108 13.1646 25.2123 13.154H30.4638C30.6619 13.1688 30.8469 13.255 30.9819 13.3954C31.1169 13.5359 31.1918 13.7202 31.1918 13.9115C31.1918 14.1029 31.1169 14.2872 30.9819 14.4276C30.8469 14.568 30.6619 14.6565 30.4638 14.6713ZM11.0966 13.154H21.0086C21.2101 13.1646 21.3997 13.2492 21.5384 13.3903C21.6772 13.5314 21.7545 13.7183 21.7545 13.9126C21.7545 14.107 21.6772 14.2939 21.5384 14.435C21.3997 14.5761 21.2101 14.6607 21.0086 14.6713H11.0966C10.8951 14.6607 10.7055 14.5761 10.5668 14.435C10.4281 14.2939 10.3508 14.107 10.3508 13.9126C10.3508 13.7183 10.4281 13.5314 10.5668 13.3903C10.7055 13.2492 10.8951 13.1646 11.0966 13.154ZM6.89534 14.6713C6.25243 14.6713 5.05611 14.8504 5.05611 13.9115C5.05611 12.9726 6.25243 13.1608 6.89534 13.154C7.09344 13.1688 7.27845 13.255 7.41341 13.3954C7.54837 13.5359 7.62334 13.7202 7.62334 13.9115C7.62334 14.1029 7.54837 14.2872 7.41341 14.4276C7.27845 14.568 7.09344 14.6565 6.89534 14.6713ZM30.4638 21.7495H21.0086C20.8072 21.7389 20.6176 21.6543 20.4789 21.5132C20.3401 21.3721 20.2628 21.1852 20.2628 20.9909C20.2628 20.7965 20.3401 20.6096 20.4789 20.4685C20.6176 20.3274 20.8072 20.2429 21.0086 20.2322H30.4638C30.6653 20.2429 30.8549 20.3274 30.9936 20.4685C31.1324 20.6096 31.2097 20.7965 31.2097 20.9909C31.2097 21.1852 31.1324 21.3721 30.9936 21.5132C30.8549 21.6543 30.6653 21.7389 30.4638 21.7495ZM11.0966 20.2322H16.8074C17.0089 20.2429 17.1985 20.3274 17.3372 20.4685C17.4759 20.6096 17.5532 20.7965 17.5532 20.9909C17.5532 21.1852 17.4759 21.3721 17.3372 21.5132C17.1985 21.6543 17.0089 21.7389 16.8074 21.7495H11.0966C10.8951 21.7389 10.7055 21.6543 10.5668 21.5132C10.4281 21.3721 10.3508 21.1852 10.3508 20.9909C10.3508 20.7965 10.4281 20.6096 10.5668 20.4685C10.7055 20.3274 10.8951 20.2429 11.0966 20.2322ZM6.89534 21.7495H5.84267C5.6412 21.7389 5.4516 21.6543 5.31288 21.5132C5.17415 21.3721 5.09684 21.1852 5.09684 20.9909C5.09684 20.7965 5.17415 20.6096 5.31288 20.4685C5.4516 20.3274 5.6412 20.2429 5.84267 20.2322H6.89534C7.09681 20.2429 7.2864 20.3274 7.42513 20.4685C7.56385 20.6096 7.64117 20.7965 7.64117 20.9909C7.64117 21.1852 7.56385 21.3721 7.42513 21.5132C7.2864 21.6543 7.09681 21.7389 6.89534 21.7495ZM30.4638 28.8322H25.2123C25.0108 28.8216 24.8212 28.7371 24.6825 28.596C24.5437 28.4549 24.4664 28.2679 24.4664 28.0736C24.4664 27.8793 24.5437 27.6924 24.6825 27.5513C24.8212 27.4102 25.0108 27.3256 25.2123 27.315H30.4638C30.6653 27.3256 30.8549 27.4102 30.9936 27.5513C31.1324 27.6924 31.2097 27.8793 31.2097 28.0736C31.2097 28.2679 31.1324 28.4549 30.9936 28.596C30.8549 28.7371 30.6653 28.8216 30.4638 28.8322ZM21.0086 28.8322H11.0966C10.8951 28.8216 10.7055 28.7371 10.5668 28.596C10.4281 28.4549 10.3508 28.2679 10.3508 28.0736C10.3508 27.8793 10.4281 27.6924 10.5668 27.5513C10.7055 27.4102 10.8951 27.3256 11.0966 27.315H21.0086C21.2101 27.3256 21.3997 27.4102 21.5384 27.5513C21.6772 27.6924 21.7545 27.8793 21.7545 28.0736C21.7545 28.2679 21.6772 28.4549 21.5384 28.596C21.3997 28.7371 21.2101 28.8216 21.0086 28.8322ZM6.89534 28.8322H5.84267C5.6412 28.8216 5.4516 28.7371 5.31288 28.596C5.17415 28.4549 5.09684 28.2679 5.09684 28.0736C5.09684 27.8793 5.17415 27.6924 5.31288 27.5513C5.4516 27.4102 5.6412 27.3256 5.84267 27.315H6.89534C7.09681 27.3256 7.2864 27.4102 7.42513 27.5513C7.56385 27.6924 7.64117 27.8793 7.64117 28.0736C7.64117 28.2679 7.56385 28.4549 7.42513 28.596C7.2864 28.7371 7.09681 28.8216 6.89534 28.8322ZM21.0086 35.9127H11.0966C10.8951 35.9021 10.7055 35.8176 10.5668 35.6765C10.4281 35.5354 10.3508 35.3484 10.3508 35.1541C10.3508 34.9598 10.4281 34.7729 10.5668 34.6318C10.7055 34.4907 10.8951 34.4061 11.0966 34.3955H21.0086C21.2101 34.4061 21.3997 34.4907 21.5384 34.6318C21.6772 34.7729 21.7545 34.9598 21.7545 35.1541C21.7545 35.3484 21.6772 35.5354 21.5384 35.6765C21.3997 35.8176 21.2101 35.9021 21.0086 35.9127ZM6.89534 35.9127C6.25243 35.9127 5.05611 36.0942 5.05611 35.1553C5.05611 34.2163 6.25243 34.4046 6.89534 34.3955C7.09681 34.4061 7.2864 34.4907 7.42513 34.6318C7.56385 34.7729 7.64117 34.9598 7.64117 35.1541C7.64117 35.3484 7.56385 35.5354 7.42513 35.6765C7.2864 35.8176 7.09681 35.9021 6.89534 35.9127ZM21.0086 42.9955H11.0966C10.8951 42.9849 10.7055 42.9003 10.5668 42.7592C10.4281 42.6181 10.3508 42.4312 10.3508 42.2369C10.3508 42.0426 10.4281 41.8556 10.5668 41.7145C10.7055 41.5734 10.8951 41.4889 11.0966 41.4782H21.0086C21.2101 41.4889 21.3997 41.5734 21.5384 41.7145C21.6772 41.8556 21.7545 42.0426 21.7545 42.2369C21.7545 42.4312 21.6772 42.6181 21.5384 42.7592C21.3997 42.9003 21.2101 42.9849 21.0086 42.9955ZM6.89534 42.9955C6.25243 42.9955 5.05611 43.1769 5.05611 42.2357C5.05611 41.2945 6.25243 41.4873 6.89534 41.4782C7.09681 41.4889 7.2864 41.5734 7.42513 41.7145C7.56385 41.8556 7.64117 42.0426 7.64117 42.2369C7.64117 42.4312 7.56385 42.6181 7.42513 42.7592C7.2864 42.9003 7.09681 42.9849 6.89534 42.9955ZM51.9788 29.6873C51.9318 29.2236 51.7822 28.775 51.54 28.3716C51.2979 27.9683 50.9688 27.6196 50.5749 27.3491C50.1811 27.0785 49.7316 26.8924 49.2568 26.8032C48.782 26.714 48.2928 26.7238 47.8223 26.8319C47.6093 26.4445 47.3178 26.1021 46.9651 25.825C46.6125 25.5479 46.2057 25.3416 45.7689 25.2183C45.332 25.0951 44.874 25.0574 44.4218 25.1074C43.9695 25.1575 43.5323 25.2943 43.1359 25.5097C42.6589 25.1339 42.0865 24.8873 41.4776 24.7952C40.8688 24.7031 40.2454 24.7689 39.6718 24.9858V15.7803C39.6058 12.324 33.4853 12.333 33.4193 15.7803V34.4136C28.4739 33.3137 21.5997 35.2369 23.9995 40.6777C24.0839 40.8099 24.2084 40.9141 24.3562 40.9761C24.504 41.0381 24.668 41.0551 24.826 41.0247C26.3888 40.6609 28.0011 40.5354 29.6043 40.6527C32.4868 41.4488 35.3527 44.8824 37.9291 45.8848V49.314C37.9291 49.5149 38.0119 49.7075 38.1595 49.8496C38.307 49.9916 38.507 50.0715 38.7156 50.0715H51.2134C51.3168 50.0718 51.4192 50.0524 51.5148 50.0144C51.6104 49.9764 51.6972 49.9207 51.7703 49.8503C51.8434 49.7799 51.9013 49.6962 51.9408 49.6042C51.9802 49.5122 52.0003 49.4135 52 49.314V29.9141C51.9974 29.8381 51.9903 29.7624 51.9788 29.6873ZM50.4198 48.5542H39.4975V46.0255H50.4198V48.5542ZM50.4198 44.5082H38.7086C36.1558 43.6623 33.1108 39.9383 30.08 39.208C28.459 38.9912 26.8106 39.0588 25.2146 39.4076C24.0254 35.2233 31.7285 35.3027 33.9939 36.1055C34.111 36.136 34.2337 36.1403 34.3527 36.118C34.4717 36.0957 34.5838 36.0475 34.6805 35.9769C34.7771 35.9064 34.8557 35.8155 34.9102 35.7112C34.9647 35.6069 34.9936 35.492 34.9948 35.3752V15.7803C35.016 14.347 38.0751 14.3197 38.0963 15.7803V26.5053C38.1 26.6622 38.154 26.8142 38.2508 26.9405C38.3476 27.0667 38.4825 27.1611 38.6371 27.2107C38.7917 27.2604 38.9585 27.2628 39.1146 27.2177C39.2707 27.1727 39.4085 27.0823 39.5093 26.9589C39.6831 26.7499 39.9036 26.5812 40.1542 26.4653C40.4049 26.3493 40.6795 26.2891 40.9576 26.2891C41.2357 26.2891 41.5102 26.3493 41.7609 26.4653C42.0116 26.5812 42.232 26.7499 42.4059 26.9589C42.4721 27.0451 42.5565 27.117 42.6535 27.1697C42.7504 27.2225 42.8578 27.255 42.9687 27.2651C43.654 27.2651 44.0685 26.4804 44.815 26.5847C45.2284 26.5864 45.6289 26.7236 45.9504 26.9739C46.2719 27.2241 46.4952 27.5724 46.5836 27.9614C46.6092 28.0776 46.6628 28.1864 46.7401 28.279C46.8174 28.3716 46.9163 28.4453 47.0287 28.4943C47.5703 28.7438 48.0484 28.1882 48.6065 28.2517C49.0703 28.2544 49.5156 28.427 49.852 28.7345C50.1884 29.042 50.3905 29.4613 50.4175 29.9073L50.4198 44.5082Z" fill="#8C0202"/>
</svg>
