<svg width="47" height="48" viewBox="0 0 47 48" fill="none" xmlns="http://www.w3.org/2000/svg">
<path d="M14.7764 23.7955L13.6765 31.4328C13.6361 31.7143 13.6758 32.0012 13.7914 32.2627C13.907 32.5242 14.0942 32.7506 14.3331 32.9177C14.5719 33.0847 14.8533 33.1862 15.1473 33.2112C15.4413 33.2362 15.7369 33.1838 16.0024 33.0597L23.1813 29.6928L30.3838 33.0605C30.6494 33.1844 30.945 33.2365 31.239 33.2112C31.533 33.186 31.8143 33.0843 32.053 32.9171C32.2917 32.75 32.4788 32.5235 32.5943 32.2619C32.7098 32.0004 32.7494 31.7135 32.7088 31.432L31.6025 23.8166L37.1527 18.2612C37.3574 18.0564 37.5004 17.8019 37.5666 17.5248C37.6327 17.2478 37.6195 16.9587 37.5283 16.6883C37.4372 16.4179 37.2715 16.1765 37.0489 15.9897C36.8264 15.803 36.5554 15.6779 36.2648 15.628L28.4016 14.2884L24.6298 7.48768C24.4909 7.23688 24.2837 7.02716 24.0306 6.88094C23.7775 6.73471 23.4879 6.65746 23.1927 6.65746C22.8975 6.65746 22.6079 6.73471 22.3548 6.88094C22.1016 7.02716 21.8945 7.23688 21.7556 7.48768L18.0023 14.2751L10.1206 15.628C9.82999 15.6779 9.55897 15.803 9.33643 15.9897C9.11389 16.1765 8.94819 16.4179 8.85702 16.6883C8.76586 16.9587 8.75265 17.2478 8.81881 17.5248C8.88496 17.8019 9.028 18.0564 9.23265 18.2612L14.7764 23.7955ZM18.2951 15.8453C18.5376 15.8038 18.7671 15.7096 18.9662 15.5699C19.1654 15.4302 19.3288 15.2487 19.4443 15.0392L23.1684 8.23767L23.8995 7.86284L23.1692 8.23823L26.9411 15.0389C27.0567 15.2487 27.2205 15.4304 27.4199 15.5701C27.6194 15.7098 27.8493 15.8038 28.0922 15.8451L35.9594 17.155L30.41 22.7104C30.2381 22.8811 30.109 23.0874 30.0326 23.3135C29.9563 23.5396 29.9346 23.7795 29.9692 24.0149L31.1063 31.6249L23.9047 28.258C23.6832 28.1535 23.4397 28.0991 23.193 28.0991C22.9463 28.0991 22.7029 28.1535 22.4813 28.258L15.317 31.6514L16.4176 24.0126C16.4517 23.7776 16.4297 23.5381 16.3533 23.3125C16.277 23.0869 16.1482 22.881 15.9768 22.7104L10.4118 17.1979L18.2951 15.8453Z" fill="#8C0202"/>
<path d="M43.3159 24.5627C43.6987 23.0487 43.8933 21.4962 43.8956 19.938C43.8956 14.6501 41.7144 9.57881 37.8318 5.83971C33.9492 2.10061 28.6833 0 23.1924 0C17.7016 0 12.4357 2.10061 8.55313 5.83971C4.67054 9.57881 2.48932 14.6501 2.48932 19.938C2.49146 21.4962 2.68625 23.0486 3.06959 24.5624C1.46783 25.9261 0.416403 27.7898 0.100075 29.8261C-0.216252 31.8623 0.222763 33.9408 1.33997 35.6962C2.45718 37.4517 4.18109 38.7717 6.20875 39.4244C8.23641 40.0772 10.4381 40.0207 12.4268 39.2651V47.0537C12.4268 47.1695 12.453 47.2839 12.5036 47.389C12.5542 47.494 12.6279 47.5872 12.7196 47.6621C12.8114 47.7369 12.9189 47.7916 13.0348 47.8224C13.1507 47.8532 13.2722 47.8593 13.3908 47.8403L23.1924 46.2671L32.994 47.8403C33.039 47.8474 33.0844 47.8511 33.1299 47.8512C33.3496 47.8512 33.5602 47.7672 33.7155 47.6176C33.8708 47.4681 33.9581 47.2652 33.9581 47.0537V39.2651C35.9465 40.019 38.1472 40.0743 40.1738 39.4212C42.2004 38.768 43.9233 37.4483 45.0401 35.6937C46.1569 33.939 46.5962 31.8616 46.2809 29.8261C45.9656 27.7905 44.9158 25.927 43.3159 24.5627ZM23.1924 1.59504C28.2423 1.60044 33.0837 3.53474 36.6544 6.97354C40.2252 10.4123 42.2337 15.0748 42.2393 19.938C42.2408 21.526 42.0246 23.1071 41.5964 24.6406C40.4585 28.7498 37.8784 32.3528 34.2945 34.8375C33.7856 35.1902 33.2588 35.5181 32.7159 35.8199L32.7146 35.8208L32.7086 35.8245C32.305 36.0543 31.8789 36.2607 31.5161 36.432C28.9235 37.6485 26.0773 38.2808 23.1933 38.281C20.3093 38.2811 17.4631 37.6491 14.8703 36.4328C14.5063 36.2607 14.0802 36.0543 13.6695 35.8199C13.1251 35.5173 12.5968 35.1886 12.0867 34.8349C8.50328 32.3492 5.92417 28.7452 4.7877 24.6354C4.35973 23.1037 4.14382 21.5242 4.14557 19.938C4.15118 15.0748 6.1597 10.4123 9.73047 6.97354C13.3012 3.53474 18.1426 1.60044 23.1924 1.59504ZM9.11432 38.281C7.67334 38.2812 6.26321 37.879 5.05469 37.1232C3.84617 36.3674 2.89111 35.2904 2.30515 34.0226C1.71919 32.7548 1.52748 31.3505 1.75322 29.9799C1.97897 28.6094 2.61249 27.3312 3.57706 26.3002C3.5942 26.3494 3.61764 26.3959 3.63503 26.4453C3.81051 26.9346 4.00131 27.4183 4.2158 27.8914C4.23401 27.9317 4.25463 27.9711 4.27318 28.011C4.49071 28.4824 4.72691 28.9447 4.98181 29.398C5.00434 29.4379 5.02479 29.4792 5.04806 29.5192C5.30784 29.9738 5.58941 30.4168 5.88496 30.8506C5.93059 30.9178 5.97523 30.9853 6.02177 31.0519C6.31636 31.4734 6.62732 31.8835 6.95465 32.2823C7.00757 32.3469 7.06123 32.4104 7.11506 32.4744C7.45236 32.8759 7.80348 33.2665 8.17208 33.642C8.21175 33.6825 8.25315 33.7212 8.29315 33.7617C9.0728 34.5429 9.9173 35.2617 10.8183 35.9107C10.8717 35.9493 10.9238 35.9892 10.9777 36.0272C11.4064 36.3298 11.8481 36.6156 12.3027 36.8846C12.3452 36.91 12.3843 36.94 12.4269 36.9651V37.5336C11.3972 38.0249 10.2635 38.2807 9.11432 38.281ZM14.0831 38.0098V37.8369L14.141 37.8649C16.7073 39.0751 19.5089 39.7527 22.3643 39.8538V44.7832L14.0831 46.1121V38.0098ZM32.3018 46.1121L24.0206 44.7832V39.8538C26.8763 39.7527 29.6781 39.0749 32.2444 37.8643C32.263 37.8557 32.2824 37.8464 32.3018 37.8371V46.1121ZM37.2706 38.281C36.1214 38.2806 34.9878 38.0247 33.9581 37.5333V36.9651C33.9988 36.9411 34.036 36.9126 34.0766 36.8883C34.5306 36.6178 34.9727 36.3317 35.403 36.0301C35.4609 35.9893 35.5167 35.9465 35.5741 35.9051C36.0203 35.5833 36.4556 35.2486 36.8723 34.8941L36.8793 34.8879C37.2977 34.5314 37.6973 34.1559 38.0841 33.7688C38.1278 33.7251 38.1728 33.683 38.2161 33.639C38.583 33.2651 38.9322 32.8764 39.2678 32.477C39.3225 32.412 39.3771 32.3474 39.4309 32.2818C39.7586 31.882 40.0703 31.471 40.3659 31.0487C40.4101 30.9855 40.4525 30.9211 40.4959 30.8573C40.7947 30.4187 41.0791 29.9721 41.3415 29.5121C41.3592 29.4811 41.375 29.4492 41.3926 29.4181C41.6565 28.9496 41.9008 28.4711 42.1257 27.9826C42.138 27.9557 42.1518 27.9296 42.164 27.9028C42.3835 27.4194 42.5787 26.9256 42.7573 26.4255C42.7725 26.3831 42.7928 26.3427 42.8077 26.3001C43.7723 27.3311 44.4058 28.6093 44.6316 29.9798C44.8573 31.3504 44.6656 32.7547 44.0797 34.0225C43.4937 35.2903 42.5387 36.3673 41.3302 37.1232C40.1217 37.879 38.7116 38.2811 37.2706 38.281Z" fill="#8C0202"/>
</svg>
