<svg width="52" height="49" viewBox="0 0 52 49" fill="none" xmlns="http://www.w3.org/2000/svg">
<path d="M35.4287 0.254766L13.3432 11.0457C13.2654 11.0801 13.1956 11.1293 13.1381 11.1902C13.0805 11.2512 13.0363 11.3228 13.0081 11.4006C12.9799 11.4784 12.9684 11.5609 12.9741 11.6432C12.9798 11.7254 13.0027 11.8057 13.0415 11.8792C13.0802 11.9527 13.1339 12.0179 13.1994 12.0709C13.265 12.124 13.3409 12.1637 13.4228 12.1878C13.5046 12.2118 13.5907 12.2197 13.6758 12.211C13.7609 12.2023 13.8433 12.1771 13.9181 12.137L36.0025 1.34602C36.2823 1.20947 36.607 1.18546 36.9053 1.27926C37.2035 1.37306 37.4509 1.57701 37.5931 1.84631L42.8733 11.8735C42.9533 12.0117 43.0858 12.1147 43.2429 12.1609C43.4001 12.2071 43.5697 12.193 43.7163 12.1214C43.8628 12.0498 43.9749 11.9263 44.0289 11.7769C44.083 11.6275 44.075 11.4637 44.0064 11.3199L38.7262 1.29268C38.4313 0.734418 37.9185 0.311605 37.3003 0.117021C36.6821 -0.077563 36.009 -0.0280246 35.4287 0.254766Z" fill="#8C0202"/>
<path d="M37.4319 6.93991C37.3529 6.91461 37.2693 6.9047 37.1863 6.91074C37.1032 6.91679 37.0221 6.93867 36.9479 6.97511C36.3201 7.28076 35.592 7.33428 34.9233 7.12394C34.2545 6.91359 33.6996 6.45654 33.3801 5.85292C33.3425 5.78121 33.2905 5.71737 33.2271 5.66504C33.1638 5.6127 33.0904 5.57292 33.011 5.54795C32.9317 5.52298 32.848 5.51332 32.7648 5.51952C32.6816 5.52573 32.6005 5.54768 32.5261 5.58411L21.3477 11.0457C21.2042 11.1228 21.0972 11.2504 21.0492 11.4017C21.0012 11.5531 21.0159 11.7164 21.0903 11.8575C21.1646 11.9987 21.2928 12.1066 21.448 12.1587C21.6031 12.2108 21.7732 12.203 21.9226 12.137L32.5804 6.92818C33.0666 7.56537 33.7477 8.04005 34.5281 8.28568C35.3086 8.5313 36.1493 8.53556 36.9324 8.29785L38.8154 11.8671C38.8954 12.0053 39.0279 12.1083 39.1851 12.1545C39.3422 12.2008 39.5118 12.1866 39.6584 12.115C39.8049 12.0434 39.917 11.9199 39.9711 11.7705C40.0252 11.6211 40.0171 11.4573 39.9485 11.3135L37.8019 7.24819C37.7644 7.17583 37.7124 7.11132 37.6489 7.05841C37.5854 7.0055 37.5117 6.96522 37.4319 6.93991Z" fill="#8C0202"/>
<path d="M4.78507 48.8503H47.36C47.9835 48.8497 48.5813 48.6109 49.0222 48.1864C49.4631 47.7618 49.711 47.1861 49.7116 46.5856V35.1963H50.1314C50.6268 35.1957 51.1017 35.0059 51.452 34.6686C51.8024 34.3312 51.9994 33.8738 52 33.3967V28.8525C51.9994 28.3754 51.8024 27.918 51.452 27.5806C51.1017 27.2433 50.6268 27.0535 50.1314 27.0529H40.3275C39.2062 27.0529 38.1308 27.4819 37.3379 28.2455C36.545 29.0091 36.0996 30.0447 36.0996 31.1246C36.0996 32.2045 36.545 33.2401 37.3379 34.0037C38.1308 34.7673 39.2062 35.1963 40.3275 35.1963H48.4411V39.1271H35.7728C35.6872 39.1237 35.6017 39.1369 35.5215 39.1661C35.4413 39.1953 35.3681 39.2398 35.3062 39.297C35.2444 39.3541 35.1951 39.4227 35.1615 39.4987C35.1279 39.5746 35.1105 39.6563 35.1105 39.7389C35.1105 39.8214 35.1279 39.9032 35.1615 39.9791C35.1951 40.055 35.2444 40.1236 35.3062 40.1808C35.3681 40.2379 35.4413 40.2824 35.5215 40.3116C35.6017 40.3408 35.6872 40.3541 35.7728 40.3507H48.4411V46.5824C48.4408 46.8585 48.3268 47.1231 48.1241 47.3183C47.9215 47.5135 47.6467 47.6233 47.36 47.6236H4.78507C3.8533 47.6224 2.96004 47.2655 2.30118 46.6309C1.64232 45.9964 1.27165 45.1362 1.27048 44.2388V40.3485H27.6438C27.8076 40.3419 27.9625 40.2746 28.0761 40.1606C28.1896 40.0466 28.253 39.8947 28.253 39.7368C28.253 39.5788 28.1896 39.4269 28.0761 39.3129C27.9625 39.1989 27.8076 39.1316 27.6438 39.125H1.27048V18.0039C1.27165 17.1066 1.64232 16.2463 2.30118 15.6118C2.96004 14.9773 3.8533 14.6204 4.78507 14.6192H47.36C47.6467 14.6195 47.9215 14.7293 48.1241 14.9245C48.3268 15.1197 48.4408 15.3843 48.4411 15.6603V25.0774C48.4375 25.1598 48.4513 25.2422 48.4816 25.3194C48.5119 25.3966 48.5581 25.4671 48.6175 25.5267C48.6768 25.5863 48.7481 25.6337 48.8269 25.6661C48.9058 25.6985 48.9906 25.7152 49.0763 25.7152C49.1621 25.7152 49.2469 25.6985 49.3258 25.6661C49.4046 25.6337 49.4759 25.5863 49.5352 25.5267C49.5945 25.4671 49.6408 25.3966 49.6711 25.3194C49.7014 25.2422 49.7152 25.1598 49.7116 25.0774V15.6646C49.7107 15.0642 49.4627 14.4887 49.0219 14.0642C48.581 13.6397 47.9834 13.4008 47.36 13.4H4.78507C3.51644 13.4014 2.30019 13.8873 1.40313 14.7512C0.506077 15.6151 0.00146578 16.7864 0 18.0082V44.2367C-8.484e-07 45.4594 0.503962 46.6321 1.40118 47.4971C2.29839 48.3622 3.51548 48.8489 4.78507 48.8503ZM37.3701 31.1225C37.371 30.3673 37.6828 29.6434 38.2373 29.1094C38.7917 28.5755 39.5434 28.2752 40.3275 28.2743H50.1314C50.2899 28.2746 50.4419 28.3354 50.554 28.4433C50.6661 28.5513 50.7292 28.6977 50.7295 28.8503V33.3946C50.7295 33.5473 50.6665 33.6939 50.5543 33.8019C50.4422 33.9099 50.29 33.9706 50.1314 33.9706H40.3275C39.5434 33.9698 38.7917 33.6694 38.2373 33.1355C37.6828 32.6015 37.371 31.8776 37.3701 31.1225Z" fill="#8C0202"/>
<path d="M40.7322 30.6094C40.663 30.5645 40.5849 30.5336 40.5029 30.5187C40.4214 30.5027 40.3374 30.5027 40.2559 30.5187C40.215 30.5265 40.175 30.538 40.1363 30.5529C40.0589 30.5839 39.9885 30.6292 39.9291 30.6862C39.8107 30.8011 39.7442 30.9563 39.7442 31.1182C39.7438 31.1583 39.7479 31.1984 39.7564 31.2377C39.7639 31.2772 39.7758 31.3158 39.7918 31.3529C39.8082 31.39 39.8279 31.4257 39.8505 31.4596C39.8743 31.4924 39.9006 31.5234 39.9291 31.5524C39.9586 31.581 39.9913 31.6064 40.0266 31.6281C40.0617 31.6501 40.0988 31.669 40.1374 31.6846C40.1761 31.6999 40.2161 31.7117 40.257 31.7198C40.2975 31.7276 40.3387 31.7315 40.38 31.7316C40.4216 31.7314 40.4631 31.7275 40.504 31.7198C40.5859 31.704 40.6638 31.6728 40.7333 31.6281C40.7679 31.6059 40.8001 31.5805 40.8297 31.5524C40.8586 31.5239 40.8845 31.4928 40.9072 31.4596C40.9307 31.4261 40.9504 31.3904 40.9659 31.3529C40.9823 31.3158 40.9945 31.2772 41.0025 31.2377C41.0113 31.1984 41.0158 31.1584 41.0158 31.1182C41.0148 30.9563 40.948 30.8012 40.8297 30.6862C40.7992 30.6583 40.7666 30.6326 40.7322 30.6094Z" fill="#8C0202"/>
<path d="M31.5897 39.125C31.4258 39.1316 31.2709 39.199 31.1574 39.313C31.0439 39.427 30.9805 39.5788 30.9805 39.7368C30.9805 39.8948 31.0439 40.0466 31.1574 40.1606C31.2709 40.2746 31.4258 40.342 31.5897 40.3486H31.8201C31.9058 40.352 31.9913 40.3387 32.0715 40.3096C32.1516 40.2804 32.2249 40.2359 32.2867 40.1787C32.3486 40.1216 32.3979 40.053 32.4315 39.977C32.4651 39.9011 32.4824 39.8194 32.4824 39.7368C32.4824 39.6543 32.4651 39.5725 32.4315 39.4966C32.3979 39.4207 32.3486 39.3521 32.2867 39.2949C32.2249 39.2378 32.1516 39.1933 32.0715 39.1641C31.9913 39.1349 31.9058 39.1216 31.8201 39.125H31.5897Z" fill="#8C0202"/>
</svg>
