<svg width="61" height="59" viewBox="0 0 61 59" fill="none" xmlns="http://www.w3.org/2000/svg">
<path d="M6.1611 49.9325H1L3.15569 54.8427C3.98943 56.7417 5.86722 57.9681 7.94124 57.9681H52.2682C54.3422 57.9681 56.22 56.7417 57.0537 54.8427L59.2094 49.9325H54.1136M6.1611 49.9325H54.1136M6.1611 49.9325V35.3638M54.1136 49.9325V35.3638M6.1611 35.3638V30.7253C6.1611 27.1172 9.08605 24.1923 12.6941 24.1923H47.5806C51.1887 24.1923 54.1136 27.1172 54.1136 30.7253V35.3638M6.1611 35.3638L12.0295 33.1067C13.1762 32.6657 14.4417 32.6427 15.6036 33.0419L20.6245 34.7666C21.7497 35.1531 22.9732 35.1441 24.0927 34.7411L28.7146 33.0773C29.8858 32.6556 31.1691 32.6659 32.3335 33.1062L36.4393 34.6588C37.64 35.1128 38.9659 35.1091 40.1641 34.6483L44.1314 33.1224C45.3028 32.6718 46.5971 32.6579 47.7779 33.0829L54.1136 35.3638M9.1663 43.2688H13.8048M45.9473 43.2688H51.0431M29.1574 13.0208C29.5058 9.62362 31.7184 2.4634 37.781 1M18.1819 43.2688H23.2777M27.7855 43.2688H32.8813M36.5398 43.2688H41.6355" stroke="#8C0202" stroke-width="1.2"/>
<circle cx="30.007" cy="18.5738" r="5.08375" stroke="#8C0202" stroke-width="1.2"/>
</svg>
