<svg width="65" height="50" viewBox="0 0 65 50" fill="none" xmlns="http://www.w3.org/2000/svg">
<path d="M0.450165 49.568H27.1442H63.8592C64.1069 49.568 64.3093 49.3749 64.3093 49.1345V21.9442C64.3093 21.7056 64.1088 21.5107 63.8592 21.5107H61.3776V0.433529C61.3776 0.194906 61.1752 0 60.9274 0H49.887C49.6392 0 49.4369 0.193084 49.4369 0.433529V21.5107H41.5873V0.433529C41.5873 0.194906 41.3868 0 41.1372 0H30.0987C29.8509 0 29.6485 0.193084 29.6485 0.433529V21.5107H27.5944V8.84545C27.5944 8.60682 27.392 8.41192 27.1442 8.41192H0.450165C0.202385 8.41192 0 8.605 0 8.84362V49.1345C0 49.3749 0.202385 49.568 0.450165 49.568ZM60.4791 10.7544H50.3391V9.27715H60.4791V10.7544ZM60.4791 8.41192H50.3391V4.08209H60.4791V8.41192ZM50.3391 11.6215H60.4791V16.1316H50.3391V11.6215ZM60.4791 0.867057V3.21504H50.3391V0.867057H60.4791ZM50.3391 16.9987H60.4791V21.5089H50.3391V16.9987ZM40.6889 10.7544H30.5488V9.27715H40.6889V10.7544ZM40.6889 8.41192H30.5488V4.08209H40.6889V8.41192ZM30.5488 11.6215H40.6889V16.1316H30.5488V11.6215ZM40.6889 0.867057V3.21504H30.5488V0.867057H40.6889ZM30.5488 16.9987H40.6889V21.5089H30.5488V16.9987ZM30.0987 22.3777H41.1372H49.887H60.9274H63.409V48.701H27.5944V22.3777H30.0987ZM0.90033 9.27715H26.694V21.9424V48.701H0.90033V9.27715Z" fill="#8C0202"/>
<path fill-rule="evenodd" clip-rule="evenodd" d="M23.5523 12.3629H4.04196C3.79418 12.3629 3.5918 12.5578 3.5918 12.7964V45.679C3.5918 45.9176 3.79418 46.1125 4.04196 46.1125H23.5523C23.8001 46.1125 24.0024 45.9176 24.0024 45.679V12.7946C24.0024 12.5559 23.802 12.3629 23.5523 12.3629ZM13.3479 28.8042H4.49213V21.6364H13.3479L14.2482 21.6346H23.104V28.8023H14.2482L13.3479 28.8042ZM4.49213 29.6694H13.3479H14.2482H23.104V36.8372H14.2482H13.3479H4.49213V29.6694ZM23.1021 20.7675H14.2463H13.3479H4.49213V13.2281H13.3479H14.2463H23.1021V20.7675ZM4.49213 37.7061H13.3479H14.2482H23.104V45.2455H14.2482H13.3479H4.49213V37.7061Z" fill="#8C0202"/>
<path d="M14.2463 20.7675V13.2281H13.3479V20.7675H14.2463Z" fill="#8C0202"/>
<path d="M13.3479 21.6364V28.8042L14.2482 28.8023V21.6346L13.3479 21.6364Z" fill="#8C0202"/>
<path d="M13.3479 29.6694V36.8372H14.2482V29.6694H13.3479Z" fill="#8C0202"/>
<path d="M13.3479 37.7061V45.2455H14.2482V37.7061H13.3479Z" fill="#8C0202"/>
<path d="M30.7412 46.1126H41.1385C41.3863 46.1126 41.5887 45.9176 41.5887 45.679V24.4161C41.5887 24.1775 41.3882 23.9825 41.1385 23.9825H30.7412C30.4934 23.9825 30.291 24.1775 30.291 24.4161V45.679C30.291 45.9176 30.4915 46.1126 30.7412 46.1126ZM36.3891 35.4802H40.6883V39.81H36.3891V35.4802ZM35.4887 39.81H31.1895V35.4802H35.4887V39.81ZM40.6883 34.6131H36.3891V30.2851H40.6883V34.6131ZM35.4887 34.6131H31.1895V30.2851H35.4887V34.6131ZM31.1913 40.677H35.4906V45.2455H31.1913V40.677ZM36.3891 45.2455V40.677H40.6883V45.2455H36.3891ZM40.6883 29.4181H36.3891V24.8496H40.6883V29.4181ZM35.4887 24.8496V29.4181H31.1895V24.8496H35.4887Z" fill="#8C0202"/>
<path d="M49.8896 46.1126H60.93C61.1778 46.1126 61.3802 45.9176 61.3802 45.679V24.4161C61.3802 24.1775 61.1778 23.9825 60.93 23.9825H49.8896C49.6418 23.9825 49.4395 24.1775 49.4395 24.4161V45.679C49.4395 45.9176 49.6418 46.1126 49.8896 46.1126ZM55.859 35.4802H60.478V39.81H55.859V35.4802ZM54.9587 39.81H50.3398V35.4802H54.9587V39.81ZM60.4798 34.6131H55.8609V30.2851H60.4798V34.6131ZM54.9587 34.6131H50.3398V30.2851H54.9587V34.6131ZM50.3398 40.677H54.9587V45.2455H50.3398V40.677ZM55.859 45.2455V40.677H60.478V45.2455H55.859ZM60.4798 29.4181H55.8609V24.8496H60.4798V29.4181ZM54.9587 24.8496V29.4181H50.3398V24.8496H54.9587Z" fill="#8C0202"/>
</svg>
