<svg width="26" height="26" viewBox="0 0 26 26" fill="none" xmlns="http://www.w3.org/2000/svg">
<path fill-rule="evenodd" clip-rule="evenodd" d="M13 25.0391C20.1797 25.0391 26 19.4339 26 12.5196C26 5.6052 20.1797 0 13 0C5.8203 0 0 5.6052 0 12.5196C0 19.4339 5.8203 25.0391 13 25.0391ZM14 4.86914C14 4.31686 13.5523 3.86914 13 3.86914C12.4477 3.86914 12 4.31686 12 4.86914V12.27C12 12.9603 12.5596 13.52 13.25 13.52H18.0556C18.6078 13.52 19.0556 13.0723 19.0556 12.52C19.0556 11.9677 18.6078 11.52 18.0556 11.52H14V4.86914Z" fill="#8C0202"/>
</svg>
