<svg width="64" height="47" viewBox="0 0 64 47" fill="none" xmlns="http://www.w3.org/2000/svg">
<circle cx="31.5716" cy="23.2913" r="22.785" stroke="#7C4549" stroke-width="1.01267"/>
<path d="M32.0889 35.7131V45.5473" stroke="#7C4549" stroke-width="1.01267"/>
<path d="M43.6328 36.2305L41.4068 43.4767" stroke="#7C4549" stroke-width="0.506333"/>
<path d="M19.6665 36.2305L21.7368 43.4767" stroke="#7C4549" stroke-width="0.506333"/>
<path d="M24.8438 35.1958L25.8789 45.5475" stroke="#7C4549" stroke-width="0.810133"/>
<path d="M38.3027 35.1958L37.2676 45.5475" stroke="#7C4549" stroke-width="0.810133"/>
<path d="M57.4448 23.8103C57.4448 30.0198 54.3453 38.3011 50.7214 41.4069" stroke="#7C4549" stroke-width="1.01267" stroke-linecap="round"/>
<path d="M6.34718 23.8077C6.34718 30.0171 9.4467 38.2985 13.0706 41.4042" stroke="#7C4549" stroke-width="1.01267" stroke-linecap="round"/>
<path d="M60.0435 26.3955C59.523 32.0899 56.9351 37.7834 53.3116 41.9242" stroke="#7C4549" stroke-width="1.01267" stroke-linecap="round"/>
<path d="M3.75042 26.3938C4.27093 32.0882 6.85886 37.7816 10.4824 41.9225" stroke="#7C4549" stroke-width="1.01267" stroke-linecap="round"/>
<path d="M8.28175 12.94C8.28175 13.7975 8.28175 14.3006 7.76417 14.3006C7.24658 14.3006 7.24658 13.7975 7.24658 12.94C7.24658 12.0824 7.76417 11.3872 7.76417 11.3872C7.76417 11.3872 8.28175 12.0824 8.28175 12.94Z" fill="#7C4549"/>
<path d="M56.0537 12.94C56.0537 13.7975 56.0537 14.3006 56.5713 14.3006C57.0889 14.3006 57.0889 13.7975 57.0889 12.94C57.0889 12.0824 56.5713 11.3872 56.5713 11.3872C56.5713 11.3872 56.0537 12.0824 56.0537 12.94Z" fill="#7C4549"/>
<path d="M8.77801 17.3786C8.39617 18.1465 8.17216 18.597 7.70871 18.3665C7.24526 18.136 7.46928 17.6856 7.85111 16.9177C8.23294 16.1498 9.00593 15.7578 9.00593 15.7578C9.00593 15.7578 9.15984 16.6107 8.77801 17.3786Z" fill="#7C4549"/>
<path d="M55.5555 17.3786C55.9373 18.1465 56.1613 18.597 56.6248 18.3665C57.0882 18.136 56.8642 17.6856 56.4824 16.9177C56.1006 16.1498 55.3276 15.7578 55.3276 15.7578C55.3276 15.7578 55.1737 16.6107 55.5555 17.3786Z" fill="#7C4549"/>
<path d="M6.75436 14.8753C7.10383 15.6584 7.30886 16.1178 6.83621 16.3288C6.36355 16.5397 6.15852 16.0802 5.80905 15.2971C5.45957 14.514 5.64893 13.6682 5.64893 13.6682C5.64893 13.6682 6.40489 14.0921 6.75436 14.8753Z" fill="#7C4549"/>
<path d="M57.5791 14.8753C57.2297 15.6584 57.0246 16.1178 57.4973 16.3288C57.9699 16.5397 58.175 16.0802 58.5244 15.2971C58.8739 14.514 58.6846 13.6682 58.6846 13.6682C58.6846 13.6682 57.9286 14.0921 57.5791 14.8753Z" fill="#7C4549"/>
<path d="M6.75436 19.0154C7.10383 19.7985 7.30886 20.258 6.83621 20.4689C6.36355 20.6798 6.15852 20.2204 5.80905 19.4373C5.45957 18.6541 5.64893 17.8084 5.64893 17.8084C5.64893 17.8084 6.40489 18.2323 6.75436 19.0154Z" fill="#7C4549"/>
<path d="M57.5791 19.0154C57.2297 19.7985 57.0246 20.258 57.4973 20.4689C57.9699 20.6798 58.175 20.2204 58.5244 19.4373C58.8739 18.6541 58.6846 17.8084 58.6846 17.8084C58.6846 17.8084 57.9286 18.2323 57.5791 19.0154Z" fill="#7C4549"/>
<path d="M34.0543 10.1989C34.0543 12.0869 33.1664 13.6175 32.0711 13.6175C30.9758 13.6175 30.0879 12.0869 30.0879 10.1989C30.0879 8.3108 32.0711 6.21045 32.0711 6.21045C32.0711 6.21045 34.0543 8.3108 34.0543 10.1989Z" fill="#7C4549"/>
<path d="M34.2884 17.41C33.3445 18.7239 32.1593 19.0668 31.5582 18.1757C30.957 17.2845 31.1676 15.4968 32.1114 14.1829C33.0553 12.869 34.7312 12.4781 34.7312 12.4781C34.7312 12.4781 35.2323 16.0961 34.2884 17.41Z" fill="#7C4549"/>
<path d="M28.861 16.7019C29.7578 17.9503 31.1342 18.6712 30.929 16.2963C30.9066 16.0374 30.9227 15.7655 31.026 15.5528C31.417 14.7471 31.8756 14.6409 31.0379 13.4748C30.094 12.1609 28.4182 11.77 28.4182 11.77C28.4182 11.77 27.9171 15.388 28.861 16.7019Z" fill="#7C4549"/>
<path d="M28.861 22.399C29.7578 23.6473 31.1342 24.3682 30.929 21.9933C30.9066 21.7345 30.9227 21.4625 31.026 21.2498C31.417 20.4441 31.8756 20.3379 31.0379 19.1718C30.094 17.8579 28.4182 17.4671 28.4182 17.4671C28.4182 17.4671 27.9171 21.0851 28.861 22.399Z" fill="#7C4549"/>
<path d="M28.861 28.097C29.7578 29.3453 31.1342 30.0662 30.929 27.6913C30.9066 27.4325 30.9227 27.1605 31.026 26.9478C31.417 26.1421 31.8756 26.0359 31.0379 24.8698C30.094 23.5559 28.4182 23.1651 28.4182 23.1651C28.4182 23.1651 27.9171 26.7831 28.861 28.097Z" fill="#7C4549"/>
<path d="M28.861 33.7962C29.7578 35.0446 31.1342 35.7654 30.929 33.3906C30.9066 33.1317 30.9227 32.8597 31.026 32.647C31.417 31.8413 31.8756 31.7351 31.0379 30.5691C30.094 29.2552 28.4182 28.8643 28.4182 28.8643C28.4182 28.8643 27.9171 32.4823 28.861 33.7962Z" fill="#7C4549"/>
<path d="M34.2884 23.5392C33.3445 24.8531 32.1593 25.1959 31.5582 24.3048C30.957 23.4137 31.1676 21.6259 32.1114 20.312C33.0553 18.9982 34.7312 18.6073 34.7312 18.6073C34.7312 18.6073 35.2323 22.2253 34.2884 23.5392Z" fill="#7C4549"/>
<path d="M34.2884 29.2379C33.3445 30.5518 32.1593 30.8947 31.5582 30.0035C30.957 29.1124 31.1676 27.3247 32.1114 26.0108C33.0553 24.6969 34.7312 24.306 34.7312 24.306C34.7312 24.306 35.2323 27.924 34.2884 29.2379Z" fill="#7C4549"/>
<path d="M34.2884 34.9347C33.3445 36.2486 32.1593 36.5915 31.5582 35.7003C30.957 34.8092 31.1676 33.0214 32.1114 31.7076C33.0553 30.3937 34.7312 30.0028 34.7312 30.0028C34.7312 30.0028 35.2323 33.6208 34.2884 34.9347Z" fill="#7C4549"/>
<path d="M41.3739 19.5004C41.2581 20.661 40.6286 21.493 39.9678 21.3587C39.307 21.2245 38.8652 20.1748 38.981 19.0142C39.0968 17.8536 40.422 16.8056 40.422 16.8056C40.422 16.8056 41.4896 18.3397 41.3739 19.5004Z" fill="#7C4549"/>
<path d="M40.9935 24.4595C40.2802 25.199 39.4706 25.2654 39.13 24.5963C38.7894 23.9273 39.0469 22.7762 39.7602 22.0367C40.4735 21.2971 41.6122 21.2654 41.6122 21.2654C41.6122 21.2654 41.7068 23.72 40.9935 24.4595Z" fill="#7C4549"/>
<path d="M37.4334 23.2609C37.9313 24.177 38.7612 24.8265 38.8293 23.4112C38.8421 23.1468 38.8845 22.8704 39.0271 22.6808C39.3074 22.3082 39.5298 22.2319 39.0915 21.4255C38.5512 20.4313 37.4639 19.9473 37.4639 19.9473C37.4639 19.9473 36.8931 22.2667 37.4334 23.2609Z" fill="#7C4549"/>
<path d="M37.0565 27.0197C37.5543 27.9357 38.3843 28.5853 38.4524 27.17C38.4651 26.9055 38.5075 26.6292 38.6502 26.4396C38.9304 26.067 39.1528 25.9907 38.7146 25.1843C38.1742 24.1901 37.087 23.7061 37.087 23.7061C37.087 23.7061 36.5161 26.0255 37.0565 27.0197Z" fill="#7C4549"/>
<path d="M36.6834 30.7785C37.1813 31.6945 38.0112 32.3441 38.0793 30.9288C38.0921 30.6643 38.1345 30.388 38.2771 30.1983C38.5574 29.8257 38.7798 29.7495 38.3415 28.9431C37.8012 27.9489 36.7139 27.4649 36.7139 27.4649C36.7139 27.4649 36.1431 29.7843 36.6834 30.7785Z" fill="#7C4549"/>
<path d="M36.3065 34.5388C36.8043 35.4548 37.6343 36.1044 37.7024 34.6891C37.7151 34.4246 37.7575 34.1483 37.9002 33.9586C38.1804 33.586 38.4028 33.5097 37.9646 32.7033C37.4242 31.7091 36.337 31.2251 36.337 31.2251C36.337 31.2251 35.7661 33.5446 36.3065 34.5388Z" fill="#7C4549"/>
<path d="M40.5883 28.5047C39.8749 29.2442 39.0653 29.3105 38.7247 28.6415C38.3842 27.9724 38.6416 26.8213 39.3549 26.0818C40.0683 25.3423 41.2069 25.3105 41.2069 25.3105C41.2069 25.3105 41.3016 27.7652 40.5883 28.5047Z" fill="#7C4549"/>
<path d="M40.2133 32.264C39.4999 33.0035 38.6903 33.0698 38.3497 32.4008C38.0092 31.7317 38.2666 30.5806 38.9799 29.8411C39.6933 29.1016 40.8319 29.0698 40.8319 29.0698C40.8319 29.0698 40.9266 31.5245 40.2133 32.264Z" fill="#7C4549"/>
<path d="M39.8373 36.0223C39.124 36.7618 38.3143 36.8281 37.9738 36.1591C37.6332 35.49 37.8906 34.3389 38.604 33.5994C39.3173 32.8599 40.4559 32.8281 40.4559 32.8281C40.4559 32.8281 40.5506 35.2828 39.8373 36.0223Z" fill="#7C4549"/>
<path d="M21.7922 20.3889C21.9079 21.4916 22.5374 22.2822 23.1982 22.1546C23.859 22.0271 24.3008 21.0297 24.185 19.9269C24.0692 18.8242 22.744 17.8284 22.744 17.8284C22.744 17.8284 21.6764 19.2861 21.7922 20.3889Z" fill="#7C4549"/>
<path d="M22.173 25.102C22.8863 25.8047 23.6959 25.8677 24.0365 25.232C24.3771 24.5962 24.1196 23.5025 23.4063 22.7999C22.693 22.0972 21.5543 22.067 21.5543 22.067C21.5543 22.067 21.4597 24.3993 22.173 25.102Z" fill="#7C4549"/>
<path d="M25.735 23.9624C25.2387 24.8301 24.4125 25.4461 24.3398 24.1179C24.3256 23.8585 24.2824 23.588 24.1356 23.404C23.8581 23.0561 23.6417 22.9794 24.0769 22.2185C24.6173 21.2738 25.7045 20.8139 25.7045 20.8139C25.7045 20.8139 26.2754 23.0178 25.735 23.9624Z" fill="#7C4549"/>
<path d="M26.1076 27.5345C25.6113 28.4021 24.785 29.0181 24.7123 27.6899C24.6981 27.4305 24.655 27.16 24.5082 26.976C24.2306 26.6281 24.0142 26.5514 24.4495 25.7905C24.9899 24.8458 26.0771 24.3859 26.0771 24.3859C26.0771 24.3859 26.648 26.5898 26.1076 27.5345Z" fill="#7C4549"/>
<path d="M26.4806 31.1058C25.9843 31.9734 25.1581 32.5894 25.0854 31.2612C25.0712 31.0018 25.028 30.7313 24.8812 30.5473C24.6037 30.1994 24.3873 30.1227 24.8225 29.3618C25.3629 28.4171 26.4501 27.9572 26.4501 27.9572C26.4501 27.9572 27.021 30.1611 26.4806 31.1058Z" fill="#7C4549"/>
<path d="M26.8576 34.6778C26.3613 35.5454 25.535 36.1614 25.4623 34.8332C25.4481 34.5738 25.405 34.3033 25.2582 34.1193C24.9806 33.7715 24.7642 33.6948 25.1995 32.9338C25.7399 31.9891 26.8271 31.5293 26.8271 31.5293C26.8271 31.5293 27.398 33.7331 26.8576 34.6778Z" fill="#7C4549"/>
<path d="M22.5763 28.944C23.2896 29.6467 24.0993 29.7097 24.4398 29.074C24.7804 28.4383 24.5229 27.3446 23.8096 26.6419C23.0963 25.9392 21.9576 25.909 21.9576 25.909C21.9576 25.909 21.863 28.2414 22.5763 28.944Z" fill="#7C4549"/>
<path d="M22.9513 32.5158C23.6646 33.2185 24.4743 33.2815 24.8148 32.6458C25.1554 32.0101 24.8979 30.9163 24.1846 30.2137C23.4713 29.511 22.3326 29.4808 22.3326 29.4808C22.3326 29.4808 22.238 31.8132 22.9513 32.5158Z" fill="#7C4549"/>
<path d="M23.3243 36.0878C24.0377 36.7905 24.8473 36.8535 25.1879 36.2178C25.5284 35.5821 25.271 34.4884 24.5577 33.7857C23.8443 33.083 22.7057 33.0528 22.7057 33.0528C22.7057 33.0528 22.611 35.3852 23.3243 36.0878Z" fill="#7C4549"/>
<path d="M15.9737 28.0618C16.1858 28.7043 16.6778 29.0405 17.0726 28.8127C17.4675 28.5848 17.6156 27.8793 17.4036 27.2367C17.1915 26.5942 16.2407 26.2919 16.2407 26.2919C16.2407 26.2919 15.7617 27.4192 15.9737 28.0618Z" fill="#7C4549"/>
<path d="M16.8134 30.8339C17.3464 31.0976 17.858 30.9515 17.9891 30.4884C18.1202 30.0252 17.8212 29.4204 17.2882 29.1566C16.7553 28.8928 16.0431 29.1338 16.0431 29.1338C16.0431 29.1338 16.2804 30.5701 16.8134 30.8339Z" fill="#7C4549"/>
<path d="M18.8794 29.332C18.6941 29.9288 18.302 30.4581 18.0767 29.8837C17.983 29.6449 17.8826 29.4075 17.6841 29.2745C17.5488 29.1838 17.4906 29.0895 17.6265 28.6517C17.8427 27.9556 18.4606 27.4291 18.4606 27.4291C18.4606 27.4291 19.0956 28.6359 18.8794 29.332Z" fill="#7C4549"/>
<path d="M19.5674 31.4138C19.3821 32.0106 18.99 32.5399 18.7647 31.9654C18.671 31.7267 18.5706 31.4893 18.3721 31.3562C18.2368 31.2656 18.1785 31.1713 18.3145 30.7335C18.5307 30.0374 19.1486 29.5109 19.1486 29.5109C19.1486 29.5109 19.7836 30.7177 19.5674 31.4138Z" fill="#7C4549"/>
<path d="M20.253 33.4946C20.0676 34.0914 19.6755 34.6207 19.4502 34.0463C19.3566 33.8075 19.2562 33.5701 19.0576 33.4371C18.9223 33.3464 18.8641 33.2521 19.0001 32.8143C19.2162 32.1182 19.8341 31.5917 19.8341 31.5917C19.8341 31.5917 20.4692 32.7985 20.253 33.4946Z" fill="#7C4549"/>
<path d="M20.9434 35.5759C20.7581 36.1727 20.3659 36.702 20.1406 36.1276C20.047 35.8888 19.9466 35.6514 19.7481 35.5183C19.6128 35.4277 19.5545 35.3334 19.6905 34.8956C19.9067 34.1995 20.5246 33.673 20.5246 33.673C20.5246 33.673 21.1596 34.8798 20.9434 35.5759Z" fill="#7C4549"/>
<path d="M17.5522 33.0729C18.0851 33.3367 18.5968 33.1905 18.7279 32.7274C18.859 32.2642 18.5599 31.6594 18.027 31.3956C17.494 31.1319 16.7819 31.3728 16.7819 31.3728C16.7819 31.3728 17.0192 32.8091 17.5522 33.0729Z" fill="#7C4549"/>
<path d="M18.2397 35.1539C18.7726 35.4177 19.2843 35.2716 19.4154 34.8084C19.5465 34.3453 19.2474 33.7405 18.7145 33.4767C18.1815 33.2129 17.4694 33.4539 17.4694 33.4539C17.4694 33.4539 17.7067 34.8901 18.2397 35.1539Z" fill="#7C4549"/>
<path d="M18.9257 37.2352C19.4587 37.499 19.9703 37.3529 20.1014 36.8897C20.2325 36.4266 19.9335 35.8218 19.4005 35.558C18.8676 35.2942 18.1554 35.5352 18.1554 35.5352C18.1554 35.5352 18.3927 36.9714 18.9257 37.2352Z" fill="#7C4549"/>
<path d="M47.1409 28.062C46.9161 28.7046 46.3945 29.0407 45.976 28.8129C45.5575 28.5851 45.4004 27.8795 45.6252 27.237C45.85 26.5944 46.8579 26.2922 46.8579 26.2922C46.8579 26.2922 47.3657 27.4195 47.1409 28.062Z" fill="#7C4549"/>
<path d="M46.2542 30.8339C45.6892 31.0976 45.1469 30.9515 45.0079 30.4884C44.8689 30.0252 45.1859 29.4204 45.7509 29.1566C46.3158 28.8928 47.0707 29.1338 47.0707 29.1338C47.0707 29.1338 46.8191 30.5701 46.2542 30.8339Z" fill="#7C4549"/>
<path d="M44.0608 29.3322C44.2584 29.9323 44.6775 30.4641 44.9157 29.8745C45.0095 29.6422 45.1103 29.4073 45.3118 29.2847C45.4665 29.1905 45.5384 29.1059 45.389 28.6519C45.1598 27.9559 44.5048 27.4294 44.5048 27.4294C44.5048 27.4294 43.8317 28.6362 44.0608 29.3322Z" fill="#7C4549"/>
<path d="M43.3333 31.414C43.5308 32.0141 43.9499 32.5459 44.1881 31.9563C44.282 31.724 44.3828 31.4891 44.5842 31.3665C44.739 31.2723 44.8109 31.1877 44.6614 30.7337C44.4323 30.0377 43.7773 29.5112 43.7773 29.5112C43.7773 29.5112 43.1042 30.718 43.3333 31.414Z" fill="#7C4549"/>
<path d="M42.6058 33.4948C42.8033 34.0949 43.2224 34.6267 43.4606 34.0371C43.5544 33.8048 43.6552 33.5699 43.8567 33.4473C44.0114 33.3531 44.0833 33.2685 43.9339 32.8145C43.7047 32.1185 43.0497 31.592 43.0497 31.592C43.0497 31.592 42.3766 32.7988 42.6058 33.4948Z" fill="#7C4549"/>
<path d="M41.8753 35.5761C42.0728 36.1762 42.4919 36.708 42.7301 36.1184C42.824 35.8861 42.9247 35.6512 43.1262 35.5286C43.281 35.4344 43.3529 35.3498 43.2034 34.8958C42.9743 34.1998 42.3193 33.6733 42.3193 33.6733C42.3193 33.6733 41.6461 34.8801 41.8753 35.5761Z" fill="#7C4549"/>
<path d="M45.4705 33.0729C44.9055 33.3367 44.3632 33.1905 44.2242 32.7274C44.0852 32.2642 44.4022 31.6594 44.9672 31.3956C45.5321 31.1319 46.287 31.3728 46.287 31.3728C46.287 31.3728 46.0355 32.8091 45.4705 33.0729Z" fill="#7C4549"/>
<path d="M44.743 35.1542C44.178 35.418 43.6356 35.2718 43.4967 34.8087C43.3577 34.3455 43.6747 33.7407 44.2396 33.4769C44.8046 33.2131 45.5595 33.4541 45.5595 33.4541C45.5595 33.4541 45.3079 34.8904 44.743 35.1542Z" fill="#7C4549"/>
<path d="M44.0154 37.2352C43.4505 37.499 42.9081 37.3529 42.7691 36.8897C42.6301 36.4266 42.9471 35.8218 43.5121 35.558C44.0771 35.2942 44.832 35.5352 44.832 35.5352C44.832 35.5352 44.5804 36.9714 44.0154 37.2352Z" fill="#7C4549"/>
</svg>
