<svg width="26" height="29" viewBox="0 0 26 29" fill="none" xmlns="http://www.w3.org/2000/svg">
<path fill-rule="evenodd" clip-rule="evenodd" d="M13.3851 28.4386C15.5394 27.41 26 21.9306 26 12.5196C26 5.6052 20.1797 0 13 0C5.8203 0 0 5.6052 0 12.5196C0 21.9306 10.4606 27.41 12.6149 28.4386C12.8632 28.5572 13.1368 28.5572 13.3851 28.4386ZM12.9992 17.8854C16.0762 17.8854 18.5706 15.4831 18.5706 12.5198C18.5706 9.55653 16.0762 7.1543 12.9992 7.1543C9.92215 7.1543 7.42773 9.55653 7.42773 12.5198C7.42773 15.4831 9.92215 17.8854 12.9992 17.8854Z" fill="#8C0202"/>
</svg>
